<svg xmlns="http://www.w3.org/2000/svg" viewBox="0 0 400 400" width="400" height="400">
  <defs>
    <linearGradient id="bg-keyboard" x1="0%" y1="0%" x2="100%" y2="100%">
      <stop offset="0%" style="stop-color:#1e3a5f"/>
      <stop offset="100%" style="stop-color:#0d9488"/>
    </linearGradient>
  </defs>
  <rect width="400" height="400" rx="80" fill="url(#bg-keyboard)"/>
  <!-- Keyboard base -->
  <rect x="60" y="180" width="280" height="120" rx="12" fill="#2d3748"/>
  <!-- Key rows -->
  <!-- Top row -->
  <rect x="80" y="195" width="28" height="22" rx="4" fill="#ffffff" opacity="0.9"/>
  <rect x="115" y="195" width="28" height="22" rx="4" fill="#0d9488" opacity="0.9"/>
  <rect x="150" y="195" width="28" height="22" rx="4" fill="#38b2ac" opacity="0.9"/>
  <rect x="185" y="195" width="28" height="22" rx="4" fill="#e53e3e" opacity="0.9"/>
  <rect x="220" y="195" width="28" height="22" rx="4" fill="#ed8936" opacity="0.9"/>
  <rect x="255" y="195" width="28" height="22" rx="4" fill="#ecc94b" opacity="0.9"/>
  <rect x="290" y="195" width="28" height="22" rx="4" fill="#48bb78" opacity="0.9"/>
  <rect x="325" y="195" width="28" height="22" rx="4" fill="#ffffff" opacity="0.9"/>
  <!-- Middle row -->
  <rect x="80" y="225" width="28" height="22" rx="4" fill="#38b2ac" opacity="0.8"/>
  <rect x="115" y="225" width="28" height="22" rx="4" fill="#ffffff" opacity="0.9"/>
  <rect x="150" y="225" width="28" height="22" rx="4" fill="#e53e3e" opacity="0.8"/>
  <rect x="185" y="225" width="28" height="22" rx="4" fill="#ed8936" opacity="0.8"/>
  <rect x="220" y="225" width="28" height="22" rx="4" fill="#ecc94b" opacity="0.8"/>
  <rect x="255" y="225" width="28" height="22" rx="4" fill="#48bb78" opacity="0.8"/>
  <rect x="290" y="225" width="28" height="22" rx="4" fill="#0d9488" opacity="0.8"/>
  <rect x="325" y="225" width="28" height="22" rx="4" fill="#38b2ac" opacity="0.8"/>
  <!-- Bottom row -->
  <rect x="80" y="255" width="45" height="22" rx="4" fill="#e53e3e" opacity="0.7"/>
  <rect x="135" y="255" width="28" height="22" rx="4" fill="#ed8936" opacity="0.7"/>
  <rect x="170" y="255" width="28" height="22" rx="4" fill="#ecc94b" opacity="0.7"/>
  <rect x="205" y="255" width="28" height="22" rx="4" fill="#48bb78" opacity="0.7"/>
  <rect x="240" y="255" width="28" height="22" rx="4" fill="#0d9488" opacity="0.7"/>
  <rect x="275" y="255" width="45" height="22" rx="4" fill="#e53e3e" opacity="0.7"/>
</svg>
